#!OML:ASF F:\VICON\USERDATA\INSTALL\rory3\rory3.ASF
:FULLY-SPECIFIED
:DEGREES
19
root 0.8792995106275474 17.798006309351354 -11.033286285116207 -1.6266154639678878 -6.263576465624395 -3.9966048221452457
lfemur -24.82899013899535 -5.441738891140237 -16.35930519523369
ltibia 23.104104761626424
lfoot 0.6715146577296975 -2.2987006331845214
ltoes -0.8693695442100546
rfemur 9.249545741693618 5.223774650829657 29.827993651114575
rtibia 38.37050005568345
rfoot -8.245860041204987 3.549092301554767
rtoes -4.7588388101199905
lowerback 11.089590240600266 2.281337206966015 4.033453598419822
upperback 0.1552452854471155 3.6119378647264373 1.049334039418552
thorax -5.87697207823797 1.672577597166952 -1.7375801741665953
lowerneck -16.204401268258316 -3.613389889995354 -1.1687721689006747
upperneck 21.537597310601917 -4.69284337141619 -0.17056554025968695
head 9.500278771886487 -2.2991089898468124 -0.46755903250510383
lclavicle -3.616362609174746e-16 5.803562902314639e-16
lhumerus -38.9046881731712 12.79348727832748 77.28041261594144
lradius 18.847612006542874
lwrist -1.427441179590856
lhand -25.081715662636828 24.436191898851767
lfingers 7.12502
lthumb 1.4326143368441584 54.41109188256007
rclavicle -3.616362609174746e-16 5.803562902314639e-16
rhumerus -20.88131143687736 -11.868407958224664 -82.36809162572229
rradius 32.037988482577155
rwrist -0.43048785195295025
rhand -19.280289418069703 23.57869547256409
rfingers 7.12502
rthumb 7.03458058269401 -6.284434341225162
20
root 0.8976830767655296 17.814005162196565 -10.57908651693357 -2.0032630482168203 -5.895487693254963 -3.239106747697511
lfemur -24.02669064373807 -4.85564065833099 -17.881202981274487
ltibia 24.953703685652794
lfoot 0.7410455774890377 -2.4788103790900964
ltoes -0.07154413626023581
rfemur 7.752326768196911 4.11185816823278 28.213196081633864
rtibia 42.640997770683136
rfoot -0.6940845046588597 5.25329921741095
rtoes -0.6488365191322574
lowerback 10.931791664911502 2.3012070764787356 3.402655080267266
upperback 0.06115066602354116 3.5445981440056187 0.8849461337998716
thorax -5.9180414720355214 1.6539477667632403 -1.5420910006321296
lowerneck -16.15960203981649 -3.655448611607487 -1.4637476426519092
upperneck 22.154090261755805 -4.724062823642953 -0.0029814578068509956
head 9.722171276549178 -2.3154882451073266 -0.37292519524043066
lclavicle -3.6163619802247894e-16 5.803562914821867e-16
lhumerus -39.037387973407654 13.054886838998842 77.00061408713341
lradius 18.251913222077608
lwrist -1.5047709608722304
lhand -25.803312395819024 20.810199065165428
lfingers 7.12502
lthumb 0.7357346036351715 50.78869903105483
rclavicle -3.6163619802247894e-16 5.803562914821867e-16
rhumerus -22.180209412469985 -12.918206585048228 -81.98659247140715
rradius 32.119688308879454
rwrist -0.4855947370954272
rhand -19.646986478157153 22.70309911405387
rfingers 7.12502
rthumb 6.680613523369695 -7.171530632942641
21
root 0.5132157643018691 17.875162646371816 7.682860560295234 -2.5069170183268654 -2.3615615505614564 -3.647534336464789
lfemur -17.199285738965763 -1.9869858801431468 -20.18153109187147
ltibia 22.813929128430296
lfoot -2.8466063120627685 -8.83271226104478
ltoes -1.0991345861671276
rfemur 2.6429198701439773 4.509482720938763 25.929903667597486
rtibia 45.326828827916245
rfoot -8.644882813923328 -1.397656681032319
rtoes 3.3958226012977333
lowerback 10.190962370685595 1.6643334901458182 2.679897188711619
upperback 0.1935829287738793 2.4641286694956204 0.7728330199290417
thorax -5.3188839312671785 1.2863457376813672 -0.9543260404325997
lowerneck -15.882692841184483 -3.4777729640086705 -1.9317203477469203
upperneck 22.074212477386993 -4.532677586681624 0.5039882701355709
head 9.82592394030817 -2.131659414722373 -0.30190156146203706
lclavicle -3.6163629441145363e-16 5.803562888418459e-16
lhumerus -36.181615085604555 12.84207580440239 77.97552728656214
lradius 18.650806766968515
lwrist 4.395250165830293
lhand -27.873384208889544 20.296781180101377
lfingers 7.12502
lthumb -1.1068454193344028 50.737371822164825
rclavicle -3.6163629426447637e-16 5.803562889404939e-16
rhumerus -23.33540672288552 -13.553469154305823 -81.20607469064599
rradius 30.387538281041437
rwrist 1.9533285988828157
rhand -18.18062543290449 23.322872337127123
rfingers 7.12502
rthumb 8.096510723942215 -6.100200692541364
22
root 0.26945672121745234 17.897650223647357 3.4580621507064464 -2.5629305424315976 -0.6172751276264623 -3.674125117023748
lfemur -17.006088201731927 -1.7695606993657718 -21.15278670468888
ltibia 21.44596732910928
lfoot -3.8929720450880914 -9.292594299407892
ltoes -1.610776457858159
rfemur 0.49631346934470066 3.7493060996280154 25.978002826657857
rtibia 47.80574401746015
rfoot -10.036049887044253 -5.871753835739031
rtoes 3.695197101645448
lowerback 10.24599514971159 1.577014862610528 2.8878717369610993
upperback 0.1824246287552984 2.4077025394133598 0.8125989304157911
thorax -5.27826409668075 1.23575853423676 -0.9571295521399326
lowerneck -15.922841641101995 -3.362949354070973 -1.9405519379124938
upperneck 22.274782042883427 -4.417448774270882 0.5645676423623112
head 9.950933054506931 -2.089326345865104 -0.25113912049530407
lclavicle -3.616362944118515e-16 5.803562888415788e-16
lhumerus -34.955520507649375 11.069018879452853 78.31372724117479
lradius 19.010265429166736
lwrist 8.278190587711716
lhand -28.974006908235772 21.99317210754084
lfingers 7.12502
lthumb -2.316611393200115 51.97528337199032
rclavicle -3.616362942811828e-16 5.803562889293395e-16
rhumerus -24.307343136796558 -13.802236399992246 -80.8955580552161
rradius 29.166520410821065
rwrist 3.3496482780525576
rhand -18.05817442814797 22.86597621212997
rfingers 7.12502
rthumb 8.31536163272114 -6.093974419187742
